<svg xmlns="http://www.w3.org/2000/svg" width="2436" height="2436"><path d="M0 1218v1218.001l1218.25-.251 1218.25-.25.25-1217.75L2437.001 0H0v1218m.498.5c0 669.9.114 943.8.252 608.667.138-335.133.138-883.233 0-1218C.612 274.4.498 548.6.498 1218.5m1385.65-1091.359c-5.989 2.216-12.088 8.153-18.858 18.359-2.554 3.85-5.41 8.147-6.348 9.549-.937 1.402-2.929 5.002-4.425 8-1.497 2.998-4.546 7.341-6.777 9.65l-4.057 4.199 2.17 5.671c1.194 3.118 3.29 7.001 4.659 8.627 1.368 1.627 2.49 3.26 2.493 3.631.011 1.483 12.879 9.16 18.727 11.172 8.146 2.803 18.077 2.959 24.768.391 7.139-2.741 7.5-3.091 7.5-7.289 0-2.13 1.257-6.362 2.878-9.691 1.583-3.251 3.669-8.385 4.636-11.41.968-3.025 2.114-6.4 2.547-7.5 1.002-2.542 1.829-6.439 2.971-14 1.163-7.702-.33-15.512-3.741-19.566-5.691-6.763-22.272-12.335-29.143-9.793m-61.407 70.609c-1.449 1.512-11.028 19.4-21.287 39.75-18.448 36.593-61.707 122.452-125.709 249.5-18.148 36.025-45.032 89.35-59.743 118.5-14.71 29.15-44.186 87.65-65.501 130-21.316 42.35-51.914 103.1-67.996 135-16.083 31.9-45.111 89.5-64.508 128-19.396 38.5-35.677 70.522-36.18 71.161-1.335 1.695-.19 2.06 8.663 2.763 4.389.349 9.564 1.044 11.5 1.546 1.936.501 5.77 1.447 8.52 2.101 7.286 1.733 15.562 4.484 19 6.317 1.65.88 3.45 1.601 4 1.603.55.002 3.025.976 5.5 2.164 2.475 1.188 5.207 2.493 6.072 2.9a145.08 145.08 0 0140.586 28.506l10.158 10.139 1.206-2.6c.663-1.43 5.922-13.175 11.686-26.1s11.741-26.2 13.282-29.5c1.541-3.3 3.809-8.25 5.039-11 1.23-2.75 3.578-7.925 5.219-11.5 1.641-3.575 6.475-14.375 10.744-24 4.268-9.625 12.567-28.075 18.441-41 5.874-12.925 11.282-24.85 12.018-26.5.736-1.65 2.338-5.25 3.561-8 1.222-2.75 4.227-9.275 6.677-14.5 3.579-7.631 13.274-29.312 24.818-55.5.727-1.65 3.428-7.5 6.001-13 2.573-5.5 8.502-18.55 13.176-29 4.674-10.45 9.807-21.784 11.407-25.187 1.6-3.403 2.909-6.429 2.909-6.726 0-.296 2.3-5.387 5.111-11.313 2.811-5.926 7.104-15.274 9.54-20.774 2.435-5.5 4.843-10.9 5.349-12 .506-1.1 2.914-6.5 5.351-12s5.882-13.15 7.655-17c1.774-3.85 4.359-9.475 5.744-12.5l5.498-12c1.638-3.575 5.434-12.125 8.435-19 6.857-15.706 13.89-31.153 16.847-37 1.252-2.475 3.405-7.2 4.785-10.5 1.38-3.3 3.849-8.925 5.488-12.5 5.555-12.122 8.197-18.058 8.197-18.416 0-.196 1.975-4.571 4.389-9.72 8.512-18.159 12.611-27.066 12.611-27.404 0-.188 1.841-4.306 4.091-9.151 2.249-4.845 5.221-11.509 6.603-14.809 3.432-8.193 5.389-12.518 13.804-30.5 3.989-8.525 10.295-22.475 14.013-31 8.558-19.622 10.499-23.913 17.108-37.83 2.96-6.232 5.381-11.488 5.381-11.681 0-.192 1.301-3.193 2.891-6.669 5.771-12.618 8.109-17.887 8.109-18.277 0-.218 1.629-3.917 3.62-8.22 7.318-15.817 9.862-21.413 22.876-50.326 7.304-16.227 14.953-33.102 16.997-37.5 2.045-4.399 8.213-18.122 13.708-30.497 5.494-12.375 11.352-25.425 13.019-29 6.413-13.758 7.526-16.653 8.222-21.379l.719-4.878-2.83.794c-4.553 1.277-17.297.839-24.331-.837-10.653-2.538-19.692-7.626-28.841-16.232-4.533-4.265-9.842-10.164-11.798-13.111-1.955-2.946-3.878-5.357-4.271-5.357-.394 0-1.901 1.238-3.349 2.75M874.67 1095.386l-3.83 1.114-27.764 55c-15.27 30.25-47.016 93.25-70.547 140-23.53 46.75-55.719 110.65-71.531 142-27.348 54.224-50.993 101.142-126.496 251l-67.009 133c-58.812 116.731-94.567 187.618-100.877 200-3.364 6.6-6.266 12.337-6.449 12.75-.184.412 1.421.75 3.566.75 3.454 0 9.599.874 17.267 2.455 1.375.284 4.75.975 7.5 1.536 21.656 4.417 59.456 19.976 79.056 32.542 19.049 12.211 27.477 18.755 39.233 30.466 4.559 4.541 8.435 8.086 8.612 7.878.516-.602 7.519-15.686 11.087-23.877 1.796-4.125 4.389-9.975 5.762-13 1.373-3.025 4.194-9.325 6.27-14 2.076-4.675 6.573-14.575 9.993-22 9.595-20.833 11.487-25.027 11.487-25.46 0-.22 1.308-3.244 2.908-6.72a2010.944 2010.944 0 007.589-16.82c2.575-5.775 5.94-13.2 7.479-16.5 5.982-12.827 9.524-20.636 17.007-37.5 4.271-9.625 10.243-22.9 13.27-29.5 8.681-18.925 10.559-23.074 17.422-38.5 3.548-7.975 7.386-16.525 8.528-19 7.483-16.212 19.109-41.941 25.338-56.075 4.018-9.116 9.815-21.855 12.882-28.308 3.068-6.454 5.577-11.892 5.577-12.086 0-.194 1.531-3.655 3.401-7.692 1.871-4.036 5.652-12.514 8.402-18.839 2.75-6.325 6.789-15.325 8.976-20a1484.131 1484.131 0 006.01-13 1893.91 1893.91 0 016.122-13.309c2.249-4.845 4.089-8.996 4.089-9.225 0-.229 1.402-3.465 3.116-7.191a1304.203 1304.203 0 007.082-15.775c2.181-4.95 5.567-12.375 7.523-16.5 1.957-4.125 8.173-17.85 13.814-30.5 9.959-22.333 16.847-37.594 23.472-52 6.075-13.211 15.993-35.473 15.993-35.898 0-.234 2.74-6.203 6.09-13.264 3.349-7.061 11.194-24.313 17.433-38.338 6.238-14.025 12.443-27.75 13.789-30.5 1.345-2.75 7.845-17.15 14.443-32 6.599-14.85 15.825-35.325 20.503-45.5 4.677-10.175 11.886-26.15 16.019-35.5 4.134-9.35 10.037-22.334 13.119-28.853 3.082-6.519 5.604-12.011 5.604-12.205 0-.194 1.32-3.185 2.934-6.647s5.487-12.145 8.606-19.295c3.12-7.15 7.649-17.214 10.066-22.364 2.417-5.149 4.394-9.495 4.394-9.657 0-.162 1.959-4.498 4.353-9.637 2.395-5.138 6.945-15.192 10.113-22.342 3.167-7.15 7.058-15.814 8.647-19.253 1.588-3.439 2.885-7.264 2.883-8.5-.013-8.039-21.349-27.602-43.189-39.6-19.534-10.731-33.229-16.496-41.807-17.6-9.062-1.166-21.599-1.246-25.33-.161M2042 1417.709c-4.262 1.567-7.727 7.509-20.001 34.291-3.151 6.875-10.01 21.5-15.242 32.5-5.232 11-13.211 29.675-17.731 41.5-4.519 11.825-10.605 27.35-13.523 34.5-7.376 18.075-12.085 32.55-16.101 49.5-3.977 16.785-6.898 25.707-9.526 29.099-1.579 2.036-2.01 2.173-2.839.901-1.327-2.036-4.312-15.153-7.966-35-7.477-40.613-9.068-48.239-12.515-60-2.016-6.875-4.302-16.725-5.082-21.89-1.669-11.057-3.282-13.565-8.213-12.765-8.66 1.405-44.107 18.964-46.905 23.234-2.446 3.734-2.94 10.88-.961 13.901 2.415 3.686 5.303 3.236 19.149-2.98 12.696-5.701 15.479-6.382 17.267-4.227 2.311 2.784 12.784 50.167 17.725 80.193 5.282 32.101 11.888 51.167 20.389 58.848 8.38 7.57 14.329 5.719 20.292-6.314 6.946-14.017 15.9-37.944 18.988-50.743 4.916-20.372 11.087-39.332 24.985-76.757 13.451-36.223 18.53-47.81 38.822-88.565 6.593-13.243 11.978-25.058 11.966-26.256-.034-3.373-3.504-10.233-6.092-12.046-2.375-1.664-4.206-1.909-6.886-.924m-1391.65 16.876c-5.305 2.255-8.188 6.254-17.238 23.915a66912.06 66912.06 0 00-24.555 48c-8.715 17.05-19.101 37.3-23.08 45-3.98 7.7-12.289 23.9-18.466 36-6.176 12.1-14.945 29.2-19.487 38-34.957 67.732-33.904 65.222-30.888 73.609 2.146 5.966 4.308 7.676 11.954 9.453 6.649 1.546 12.096.114 16.991-4.465 1.936-1.811 9.143-14.729 19.384-34.74 16.264-31.782 23.043-44.942 37.272-72.357 7.449-14.351 37.523-72.927 58.274-113.5 5.907-11.55 11.099-21.454 11.536-22.008 1.807-2.289 3.427-9.236 2.957-12.682-.277-2.03-1.904-5.666-3.614-8.081-2.444-3.449-4.052-4.629-7.5-5.5-7.506-1.897-10.281-2.029-13.54-.644m764.07 62.773c-9.163 2.988-14.42 10.006-14.42 19.248 0 17.325 16.921 47.811 40.885 73.659 2.429 2.621 4.237 4.919 4.016 5.106-24.982 21.155-46.282 42.553-53.757 54.006-15.925 24.396-10.539 43.396 13.371 47.17 3.858.609 4.1.483 6.171-3.207 1.185-2.112 5.324-11.425 9.198-20.697 3.873-9.271 9.154-20.246 11.736-24.388 5.2-8.343 20.746-25.11 29.595-31.92l5.716-4.399 11.284 9.126c22.007 17.797 40.268 28.352 54.555 31.53 13.823 3.076 31.377.597 46.97-6.633 17.95-8.322 35.393-21.863 54.854-42.582 30.149-32.099 41.883-46.658 49.677-61.632 4.325-8.31 4.437-11.509.479-13.713-3.922-2.184-6.164-.659-17.588 11.968-29.924 33.072-38.447 42.067-48.992 51.705-33.902 30.986-54.594 39.292-77.899 31.27-12.976-4.467-34.192-16.808-44.272-25.754l-4.457-3.955 29.479-30.217c16.214-16.62 31.024-32.509 32.911-35.309 4.937-7.323 5.351-13.729 1.25-19.355-5.553-7.619-17.278-11.455-24.149-7.902-2.96 1.531-7.425 8.214-13.038 19.517-7.611 15.324-19.19 28.888-40.863 47.869l-8.369 7.329-5.472-5.349c-15.068-14.73-22.438-29.73-25.229-51.349-1.63-12.62-2.604-15.687-6.024-18.964-2.377-2.277-4.079-2.934-8.266-3.188-2.9-.177-7.108.278-9.352 1.01M1157 1528.517c-3.025.743-8.533 2.733-12.239 4.422-8.292 3.779-31.097 10.526-42.099 12.456-13.46 2.36-29.809 9.764-32.453 14.696-1.644 3.065-.982 10.08 1.274 13.524 1.619 2.47 2.107 2.609 7.438 2.126 3.582-.325 12.284-2.997 23.372-7.177 21.512-8.11 24.526-9.013 37.207-11.146 5.5-.926 12.475-2.788 15.5-4.139 4.906-2.192 6.371-2.389 13.568-1.831 7.238.562 8.343.41 10.75-1.483 2.304-1.813 2.682-2.854 2.682-7.39 0-6.947-2.934-11.417-9.027-13.752-5.336-2.045-8.633-2.108-15.973-.306m603.035 17.685c-8.075 3.1-14.821 10.313-18.987 20.298-4.876 11.688-5.684 19.149-3.94 36.371.796 7.857 1.21 14.42.92 14.584-.291.165-8.178-1.455-17.528-3.599-9.35-2.144-21.106-4.176-26.124-4.516-11.91-.808-27.312 1.113-33.876 4.224-6.975 3.306-14.535 10.246-17.905 16.438-2.5 4.594-2.789 5.989-2.356 11.367.94 11.678 10.654 31.167 21.099 42.333 11.28 12.058 34.709 27.938 47.662 32.305 9.296 3.134 14.753 2.453 26.302-3.28 12.436-6.173 17.847-11.086 22.102-20.067 5.761-12.16 7.094-19.101 7.095-36.956l.001-15.796 4 .635c2.2.349 10.975 2.19 19.5 4.091 8.71 1.942 19.881 3.711 25.5 4.039 11.249.656 28.821-.945 33.963-3.093 3.781-1.58 6.371-5.691 6.773-10.753l.264-3.327-6.75.312c-3.713.172-6.75.064-6.75-.239 0-.304 3.579-3.972 7.954-8.151 10.028-9.581 12.441-14.211 11.542-22.144-.955-8.432-4.261-20.172-7-24.862-2.73-4.674-8.629-10.276-15.224-14.458-4.664-2.958-35.651-13.721-47.272-16.419-9.665-2.244-24.203-1.933-30.965.663M1308 1549.028c-19.078 2.967-39.263 4.205-62.424 3.829l-21.97-.357-2.303 3.398c-3.098 4.571-3.122 11.043-.053 14.595l2.25 2.604 33.5-2.062c18.425-1.134 37.3-2.458 41.945-2.942 8.488-.885 11.055-.647 11.055 1.025 0 .497-2.512 4.964-5.581 9.926-18.251 29.505-49.727 109.893-49.617 126.721.04 6.159 3.364 13.898 6.604 15.374 5.799 2.642 10.594-3.536 10.594-13.649 0-3.066.707-9.043 1.571-13.282 1.973-9.683 12.68-41.999 19.513-58.893 7.214-17.839 23.247-50.509 31.772-64.742 7.605-12.696 8.705-16.899 5.587-21.35-1.917-2.738-5.865-2.772-22.443-.195m462.355 17.901c-2.72 1.178-6.724 6.534-8.276 11.071-1.89 5.524-2.251 19.398-.859 33l1.28 12.5 12.5 1.674c23.847 3.194 39.851 1.973 47.979-3.659 14.015-9.713 16.629-27.001 5.721-37.841-4.814-4.784-15.41-10.206-27.705-14.175-9.108-2.94-26.431-4.394-30.64-2.57m-599.838 35.691c-9.545 1.723-14.542 3.188-24.517 7.188-4.125 1.654-14.925 4.682-24 6.73-21.646 4.884-33 10.271-33 15.657 0 2.787 4.122 8.099 8.278 10.668 3.286 2.03 3.384 2.033 9.271.201 10.144-3.156 66.592-18.271 73.451-19.667 3.575-.728 8.356-1.34 10.625-1.36 7.688-.069 10.171-1.012 11.317-4.3 2.338-6.706.091-12.99-5.476-15.316-4.279-1.787-15.414-1.702-25.949.199m514.767 27.565c-7.303.806-13.847 3.524-17.158 7.126-2.066 2.246-2.319 3.338-1.953 8.4.651 9.001 3.858 14.299 16.247 26.833 13.134 13.289 20.836 18.568 30.57 20.953 8.691 2.13 12.403 1.51 18.408-3.075 9.05-6.91 12.975-19.415 12.439-39.623-.207-7.811-.78-13.144-1.488-13.851-3.701-3.698-42.831-8.335-57.065-6.763m-816.669 57.903c-3.216 2.53-5.321 6.389-5.68 10.417-.147 1.647.055 14.02.449 27.495.394 13.475.325 25.85-.154 27.5l-.869 3-17.431.849c-11.968.583-21.033.482-28.93-.321-6.325-.644-12.199-.899-13.053-.568-2.294.89-4.947 5.914-4.947 9.368 0 3.804 4.103 8.816 7.899 9.65 1.565.344 5.856-.073 9.535-.927 6.778-1.571 35.02-2.199 42.593-.945l3.526.583-.751 9.656c-.412 5.31-1.454 15.206-2.314 21.99-1.684 13.284-2.066 23.77-.989 27.162.812 2.558 4.264 4.003 9.566 4.003 4.906 0 7.915-2.731 7.987-7.25.296-18.513 2.063-48.999 3.005-51.854l1.189-3.603 12.127-.613c7.59-.384 18.674-.058 29.627.872 14.388 1.221 18.389 1.26 22.5.217l5-1.269.301-5.22c.359-6.221-.766-8.661-5.081-11.02-2.869-1.568-6.454-1.76-32.92-1.76-21.512 0-30.026-.326-30.882-1.182-1.172-1.172-1.021-12.009.649-46.318l.608-12.5-3.066-4.75c-3.423-5.305-5.422-5.865-9.494-2.662M1008 1701.729c-2.324.885-2.968 2.412-2.985 7.081-.013 3.833.562 4.92 5.198 9.821 2.867 3.032 8.474 7.967 12.46 10.967 8.57 6.449 14.969 12.586 22.086 21.179 8.003 9.662 8.032 9.78 3.01 12.337-9.446 4.81-38.024 25.315-40.504 29.062-4.702 7.105-.88 14.824 7.34 14.824 6.116 0 8.099-1.281 9.567-6.179 1.047-3.495 2.819-5.393 11.285-12.086 9.933-7.854 20.971-14.932 25.254-16.194 1.862-.548 2.946.346 6.857 5.654 5.12 6.949 8.494 13.199 10.422 19.305 2.711 8.586 7.296 9.864 13.307 3.708 5.53-5.663 5.124-7.961-3.396-19.197-3.904-5.15-8.059-11.34-9.233-13.757l-2.134-4.394 2.483-1.93c2.906-2.259 39.345-20.423 55.963-27.895 6.314-2.839 11.781-5.648 12.148-6.242 1.003-1.623-1.079-6.696-3.218-7.841-3.353-1.795-23.114-5.833-36.424-7.444-7.142-.864-21.986-3.108-32.986-4.987-31.683-5.411-60.832-7.95-66.5-5.792m24.629 15.063c-.592.958 32.603 35.208 34.123 35.208 1.335 0 38.931-18.363 43.748-21.368 2.704-1.686 3.514-2.638 2.5-2.938-3.404-1.007-37.125-5.706-45-6.271-7.891-.566-29.363-3.792-33.166-4.983-.916-.287-1.909-.128-2.205.352m-286.354 145.679c-15.173 4.284-35.766 18.707-50.724 35.529-12.818 14.414-26.872 39.619-32.062 57.5-7.608 26.215-1.348 51.809 14.374 58.763 5.039 2.229 9.723 1.891 20.137-1.456 17.049-5.479 30.84-14.865 51.8-35.253 7.663-7.455 14.219-13.554 14.567-13.554.348 0 .637.787.642 1.75.016 2.852 5.484 11.437 10.15 15.934 16.299 15.71 42.194 14.164 69.841-4.171 11.358-7.532 39.306-32.477 47.849-42.707 6.804-8.148 10.151-16.071 10.151-24.032 0-8.414-1.543-7.584-19.293 10.381-23.909 24.196-39.874 36.211-57.198 43.045-6.82 2.69-9.357 3.169-17.087 3.229-8.393.066-9.386-.142-13.17-2.759-2.25-1.557-5.274-4.537-6.719-6.623-7.976-11.509-8.541-22.68-2.474-48.923 5.011-21.674 5.123-25.28 1.046-33.561-3.974-8.074-7.032-11.052-12.879-12.543-7.641-1.95-22.96-2.24-28.951-.549m-2.775 22.332c-7.879 2.737-15.529 8.448-26.158 19.529-21.565 22.481-38.716 61.262-34.355 77.681 2.884 10.856 9.161 11.505 27.857 2.879 26.697-12.318 47.011-37.655 53.631-66.892 2.359-10.418 2.46-27.443.188-31.75-1.695-3.214-1.794-3.25-8.939-3.217-4.191.019-9.323.762-12.224 1.77m-353.105 166.65c-1.734.742-3.368 2.335-3.701 3.609-.521 1.991.132 25.532 1.773 63.938.27 6.325.733 20.95 1.029 32.5.295 11.55.748 24.15 1.005 28 .258 3.85.701 14.425.986 23.5.74 23.631 1.736 44 2.149 44 .196 0 4.745-3.358 10.11-7.463a4244.155 4244.155 0 0118.083-13.75A3142.566 3142.566 0 00436.034 2215c3.231-2.475 7.497-5.625 9.481-7 1.983-1.375 4.592-3.282 5.796-4.237 5.575-4.423 14.937-11.498 18.212-13.763 1.988-1.375 4.821-3.446 6.296-4.603 1.475-1.157 9.656-7.328 18.181-13.713 8.525-6.386 16.144-12.171 16.931-12.856.787-.684 6.187-4.75 12-9.035 5.813-4.284 11.57-8.578 12.793-9.541a521.84 521.84 0 016.186-4.752c5.81-4.399 6.745-7.244 3.976-12.096-2.86-5.012-18.798-21.192-25.721-26.112a688.531 688.531 0 01-9.5-6.887c-12.37-9.191-35.635-21.458-51.165-26.977-14.629-5.199-19.099-6.475-31-8.85a254.96 254.96 0 01-5.294-1.119c-11.117-2.518-29.049-3.614-32.811-2.006" fill="undefined" fill-rule="evenodd"/></svg>